<svg xmlns="http://www.w3.org/2000/svg" width="27" height="23" viewBox="0 0 27 23"><g><g opacity=".5"><path fill="#fff" d="M21.94 1.637H5.258L2.472 21.351h22.253zm1.41-1.643l3.25 23H.6l3.25-23zM19.187 6.38c-.466 3.884-2.747 6.756-5.589 6.756-2.842 0-5.122-2.872-5.589-6.756a1.635 1.635 0 0 1-.91-1.458c0-.909.726-1.644 1.624-1.644.898 0 1.625.735 1.625 1.644 0 .561-.297 1.033-.723 1.33.393 2.95 2.053 5.24 3.973 5.24 1.922 0 3.58-2.29 3.974-5.24-.427-.297-.724-.769-.724-1.33 0-.909.727-1.644 1.625-1.644s1.625.735 1.625 1.644c0 .644-.376 1.19-.91 1.458z"/></g></g></svg>