<svg xmlns="http://www.w3.org/2000/svg" width="24" height="23" viewBox="0 0 24 23"><g><g opacity=".5"><path fill="#fff" d="M5.63 7.9c0-2.081.654-4.047 1.842-5.53C8.697.837 10.34-.007 12.099-.007c3.567 0 6.469 3.548 6.469 7.906 0 4.36-2.902 7.906-6.469 7.906S5.63 12.26 5.63 7.901zm1.437 0c0 3.567 2.259 6.47 5.032 6.47 2.774 0 5.031-2.903 5.031-6.47 0-3.566-2.257-6.468-5.03-6.468-2.775 0-5.033 2.902-5.033 6.469zM23.6 20.839a2.159 2.159 0 0 1-2.156 2.156H2.755A2.16 2.16 0 0 1 .6 20.838a6.476 6.476 0 0 1 6.469-6.469.718.718 0 1 1 0 1.437 5.038 5.038 0 0 0-5.031 5.032.72.72 0 0 0 .718.719h18.688a.72.72 0 0 0 .719-.72 5.037 5.037 0 0 0-5.031-5.03.718.718 0 1 1 0-1.438 6.476 6.476 0 0 1 6.468 6.469z"/></g></g></svg>