<svg xmlns="http://www.w3.org/2000/svg" width="24" height="23" viewBox="0 0 24 23"><g><g opacity=".5"><path fill="#fff" d="M23.6 8.619a8.625 8.625 0 0 1-12.663 7.62l-5.995 5.993.001.002A2.537 2.537 0 1 1 1.36 18.65l-.005-.005 5.998-5.995a8.577 8.577 0 0 1-1.003-4.031 8.626 8.626 0 0 1 17.25 0zm-13.76 6.92a8.697 8.697 0 0 1-1.792-1.795l-5.797 5.798.006.005a1.263 1.263 0 0 0 .878 2.178c.359 0 .68-.15.91-.39zm12.322-6.92a7.188 7.188 0 0 0-14.375 0 7.189 7.189 0 0 0 14.375 0zm-6.828-4.672a.36.36 0 0 1-.36.36 4.312 4.312 0 0 0-4.312 4.312.36.36 0 1 1-.72 0 5.031 5.031 0 0 1 5.032-5.032c.198 0 .36.161.36.36z"/></g></g></svg>