<svg xmlns="http://www.w3.org/2000/svg" width="26" height="22" viewBox="0 0 26 22"><g><g opacity=".5"><path fill="#fff" d="M25.598 7.039c0 2.171-1.116 3.86-2.089 5.09l-6.756 7.883c-1.096 1.276-2.54 1.98-4.065 1.98-1.591 0-3.125-.796-4.207-2.18l-6.005-7.687C1.592 10.895.6 9.235.6 7.04.6 3.154 3.608-.006 7.304-.006c1.568 0 3.093.581 4.294 1.637.764.671 1.199.945 1.501.945.303 0 .738-.274 1.5-.945a6.511 6.511 0 0 1 4.295-1.637c3.696 0 6.704 3.16 6.704 7.045zm-1.62 0c0-2.945-2.28-5.342-5.084-5.342a4.936 4.936 0 0 0-3.253 1.24c-.967.85-1.693 1.342-2.542 1.342-.848 0-1.574-.492-2.542-1.342a4.93 4.93 0 0 0-3.253-1.24c-2.803 0-5.084 2.397-5.084 5.342 0 1.69.818 3.043 1.53 4.033l5.984 7.66c.785 1.003 1.834 1.557 2.955 1.557 1.06 0 2.076-.504 2.86-1.417l6.735-7.857c.827-1.046 1.694-2.36 1.694-3.976z"/></g></g></svg>