<svg xmlns="http://www.w3.org/2000/svg" width="366" height="366" viewBox="0 0 366 366"><g><g opacity=".3"><path fill="#f1edea" d="M359.298 100.513A22.864 22.864 0 0 1 366 116.688V249.3a22.788 22.788 0 0 1-6.702 16.175l-93.779 93.822A22.898 22.898 0 0 1 249.347 366h-132.66a22.987 22.987 0 0 1-16.195-6.68l-93.79-93.8A22.85 22.85 0 0 1 0 249.346v-132.66c0-6.086 2.402-11.894 6.723-16.174l93.79-93.81A22.816 22.816 0 0 1 116.688 0H249.3a22.917 22.917 0 0 1 16.218 6.702zm-16.173 16.175l-93.778-93.813h-132.66l-93.812 93.813V249.3l93.813 93.824H249.3l93.824-93.824zM205.875 91.5v114.375c0 12.622-10.253 22.875-22.875 22.875s-22.875-10.253-22.875-22.875V91.5c0-12.622 10.253-22.875 22.875-22.875s22.875 10.253 22.875 22.875zM183 251.625c12.643 0 22.875 10.232 22.875 22.875S195.643 297.375 183 297.375c-12.632 0-22.875-10.232-22.875-22.875s10.243-22.875 22.875-22.875z"/></g></g></svg>