<svg xmlns="http://www.w3.org/2000/svg" width="18" height="18" viewBox="0 0 18 18"><g><g><path fill="#4f4e4c" d="M18 6.75a6.75 6.75 0 0 1-9.91 5.963L3.4 17.403v.002A1.985 1.985 0 1 1 .595 14.6l-.003-.003 4.694-4.693A6.75 6.75 0 1 1 18 6.75zM7.233 12.166a6.81 6.81 0 0 1-1.403-1.405l-4.537 4.537.005.005a.99.99 0 1 0 1.4 1.399zm9.642-5.416a5.626 5.626 0 1 0-11.251.002 5.626 5.626 0 0 0 11.251-.002zm-5.344-3.657a.282.282 0 0 1-.28.282A3.375 3.375 0 0 0 7.874 6.75a.281.281 0 0 1-.562 0 3.937 3.937 0 0 1 3.937-3.938c.155 0 .281.126.281.281z"/></g></g></svg>